<svg width="16" height="9" viewBox="0 0 16 9" fill="none" xmlns="http://www.w3.org/2000/svg">
<path d="M2.10482 0.0810547H0.723358L1.61652 4.06292H0.15452C-0.00837454 4.06292 -0.0903707 4.95681 0.153796 4.95681H1.94193L2.67366 7.1509H4.38017L2.10482 0.0810547Z" fill="#BD031C"/>
<path d="M3.24481 0.587154L3.37745 0.741954C3.549 0.942146 3.79947 1.05737 4.0631 1.05737H6.16687C8.18298 1.05737 8.03826 3.45814 6.20923 3.57424C6.18161 3.57599 6.15324 3.57923 6.12609 3.58465C5.75421 3.65896 5.57268 4.08332 5.77577 4.40359L7.21952 6.68027C7.37367 6.92335 7.64149 7.07064 7.92932 7.07064C8.61625 7.07064 9.01309 6.29131 8.60904 5.73578L7.65109 4.41868C7.63679 4.39901 7.62096 4.38049 7.60377 4.36328L7.52443 4.28386C7.4877 4.2471 7.46707 4.19726 7.46707 4.14529C7.46707 4.09329 7.48773 4.04343 7.5245 4.00666L7.54834 3.98282C7.60037 3.93079 7.67218 3.90274 7.74556 3.89732C9.66966 3.75512 9.86091 0.0822149 7.6296 0.0822149L3.51837 0.00658935C3.32161 0.00296992 3.16016 0.161481 3.16016 0.358277C3.16016 0.442226 3.19018 0.523407 3.24481 0.587154Z" fill="black"/>
<rect x="10.9619" y="0.0810547" width="1.62525" height="7.15111" rx="0.812626" fill="black"/>
<path d="M14.3749 0.893681C14.3749 0.44488 14.7387 0.0810547 15.1875 0.0810547V0.0810547C15.6363 0.0810547 16.0002 0.44488 16.0002 0.893681V5.96123C16.0002 6.78794 15.7891 7.64028 15.1875 8.20731V8.20731C14.7595 8.61079 14.2713 8.67089 13.9605 8.65785C13.8122 8.65162 13.7589 8.48549 13.8582 8.37514L13.9944 8.22381C14.2394 7.95161 14.3749 7.59837 14.3749 7.23216V7.23216V0.893681Z" fill="black"/>
</svg>
