<svg width="185" height="100" viewBox="0 0 185 100" fill="none" xmlns="http://www.w3.org/2000/svg">
<path d="M22.8492 0.936035H10.8517C9.57054 0.936035 8.61976 2.12371 8.90016 3.37377L18.1208 44.481C18.4012 45.7311 17.4543 46.9188 16.1732 46.9188H1.7844C-0.0967094 46.9188 -1.0436 57.2414 1.77604 57.2414H20.993C21.8538 57.2414 22.6091 57.7921 22.8814 58.6087L30.4195 81.2116C30.6918 82.0281 31.456 82.5788 32.3168 82.5788H47.8377C49.1941 82.5788 50.1571 81.2573 49.7415 79.9661L24.753 2.32331C24.4869 1.49656 23.7177 0.936035 22.8492 0.936035Z" fill="#BD031C"/>
<path d="M37.4558 6.76306L40.9264 10.8132C41.6863 11.7001 42.7959 12.2105 43.9638 12.2105H71.2148C94.5609 12.2105 92.8162 40.0873 71.5293 41.2859C71.3246 41.2974 71.1138 41.3218 70.9128 41.3619L67.5465 42.0345C64.7925 42.5848 63.4482 45.7274 64.9522 48.0992L85.0514 79.7941C85.785 80.951 87.0596 81.6519 88.4295 81.6519H102.773C106.042 81.6519 107.931 77.943 106.008 75.2992L88.2904 50.9388C88.1679 50.7704 88.0325 50.6118 87.8853 50.4645L86.8919 49.4702C86.4678 49.0456 86.2296 48.4701 86.2296 47.87C86.2296 47.2695 86.4681 46.6936 86.8927 46.269L87.168 45.9937C87.7689 45.3928 88.5982 45.069 89.4456 45.0063C111.665 43.3642 113.874 0.94942 88.1064 0.94942L40.5667 0.0749328C38.3292 0.0337734 36.4932 1.83633 36.4932 4.07426V4.16032C36.4932 5.11497 36.8346 6.03815 37.4558 6.76306Z" fill="black"/>
<rect x="126.589" y="0.936035" width="18.7685" height="82.5812" rx="1" fill="black"/>
<path d="M166.002 1.93603C166.002 1.38375 166.45 0.936035 167.002 0.936035L183.771 0.936035C184.323 0.936035 184.771 1.38375 184.771 1.93604V78.0867C184.771 81.6191 183.689 85.077 181.503 87.8512C179.698 90.1406 177.417 92.8643 175.387 94.7783C169.317 100.499 162.201 100.242 159.115 99.7834C158.385 99.675 158.13 98.8338 158.623 98.2856L163.435 92.9385C165.088 91.1022 166.002 88.7193 166.002 86.2488V83.5172V1.93603Z" fill="black"/>
</svg>
